<svg version="1.0" xmlns="http://www.w3.org/2000/svg"
 width="1024.000000pt" height="1024.000000pt" viewBox="0 0 1024.000000 1024.000000"
 preserveAspectRatio="xMidYMid meet" fill-rule="evenodd" >
    <rect x="0" y="0" width="1024" height="1024" fill="#facc15"/>
<g transform="translate(0.000000,1024.000000) scale(0.100000,-0.100000)"
fill="#000000" stroke="none">
<path d="M2925 8571 c-162 -39 -251 -167 -304 -436 -84 -423 -164 -1177 -222
-2075 -13 -213 -16 -574 -5 -690 l7 -86 -190 24 c-214 28 -237 25 -272 -32
-35 -57 -16 -132 40 -160 15 -8 111 -26 212 -40 275 -38 245 -28 259 -89 7
-29 26 -88 41 -131 16 -44 28 -80 26 -82 -1 -1 -106 -8 -233 -17 -247 -16
-269 -21 -292 -73 -28 -60 -5 -131 52 -158 35 -17 136 -15 492 10 l91 7 37
-61 c20 -34 62 -96 92 -137 30 -42 54 -78 54 -81 0 -2 -256 -4 -568 -4 l-568
0 -51 -25 c-51 -26 -91 -72 -112 -128 -29 -77 10 -409 94 -802 139 -646 397
-1195 715 -1516 119 -120 225 -194 344 -240 163 -63 -8 -59 2731 -59 l2503 0
53 28 c39 20 62 41 84 77 30 49 30 49 28 189 -4 400 -113 840 -316 1277 -108
232 -300 532 -464 726 -29 34 -53 66 -52 70 0 4 34 37 76 73 142 123 322 342
425 519 l43 73 100 -6 c55 -3 188 -9 295 -12 222 -8 249 -2 276 61 18 44 18
69 -1 105 -28 53 -53 59 -320 72 -215 11 -245 14 -240 28 19 46 75 244 75 261
0 10 3 19 7 19 28 0 524 84 546 92 43 17 67 54 67 105 0 38 -5 50 -34 79 -30
30 -40 34 -87 34 -30 -1 -145 -16 -257 -34 l-204 -32 6 30 c42 237 -15 1178
-129 2126 -84 696 -143 922 -270 1038 -79 72 -145 95 -260 90 -102 -5 -158
-28 -275 -114 -146 -107 -444 -430 -674 -732 -77 -100 -114 -141 -125 -138
-26 8 -315 35 -496 46 -199 12 -812 30 -870 25 -22 -2 -105 -6 -185 -9 -120
-5 -326 -26 -580 -62 l-45 -6 -85 108 c-271 348 -606 706 -748 799 -114 74
-233 101 -337 76z m4541 -274 c40 -44 55 -92 93 -312 81 -465 152 -1142 202
-1925 14 -219 17 -624 6 -731 l-8 -75 -242 -39 c-299 -47 -303 -48 -327 -88
-42 -68 -13 -156 58 -178 33 -9 68 -7 233 20 107 17 201 31 211 31 15 0 15 -4
2 -47 -8 -27 -26 -78 -40 -115 l-26 -68 -41 0 c-23 1 -112 5 -196 10 -172 10
-200 4 -239 -45 -39 -50 -19 -145 37 -175 12 -6 86 -13 166 -17 80 -3 145 -9
145 -13 0 -12 -75 -123 -129 -190 -76 -95 -234 -253 -329 -327 -87 -69 -112
-102 -112 -153 0 -45 13 -65 109 -165 333 -348 625 -935 735 -1479 24 -119 56
-375 56 -451 l0 -35 -1473 0 c-1423 0 -1476 1 -1549 19 -290 74 -441 292 -369
532 19 61 31 80 79 129 98 96 208 133 397 133 238 0 473 -76 738 -241 110 -67
158 -74 207 -27 59 57 48 133 -29 193 -61 49 -299 170 -424 216 -53 20 -146
49 -205 64 -98 24 -123 27 -302 27 -186 0 -198 -1 -270 -27 -41 -14 -76 -25
-76 -25 -10 12 -94 274 -133 413 -58 209 -100 386 -166 709 -26 127 -55 246
-65 265 -25 47 -86 105 -135 127 -36 16 -84 18 -480 20 l-440 3 -54 58 c-54
58 -181 222 -181 233 0 4 37 10 83 13 167 13 179 16 214 51 27 27 33 41 33 77
0 51 -19 82 -63 104 -31 17 -121 16 -327 -3 -65 -5 -66 -5 -79 23 -24 52 -70
182 -66 186 2 2 77 -6 167 -18 198 -28 242 -29 278 -8 35 21 60 64 60 102 0
42 -39 95 -81 109 -20 6 -135 24 -256 39 l-221 27 -9 96 c-43 504 122 2419
248 2866 6 22 28 56 49 77 32 33 44 38 83 38 94 0 176 -58 370 -266 169 -179
316 -353 463 -544 62 -80 124 -151 138 -158 37 -16 80 -15 258 7 285 36 453
45 908 44 443 0 687 -10 935 -39 238 -28 271 -29 314 -9 26 11 52 36 77 72 21
31 97 131 170 224 290 373 488 579 617 644 61 31 79 36 121 32 41 -4 55 -11
82 -40z m-3492 -4294 c3 -10 28 -128 56 -263 60 -294 115 -521 177 -730 46
-155 126 -377 143 -394 5 -5 -13 -37 -42 -75 -58 -75 -92 -146 -113 -235 -42
-177 10 -398 124 -528 23 -25 41 -48 41 -50 0 -1 -345 -1 -767 2 l-768 5 -68
27 c-37 15 -98 47 -135 71 -260 170 -571 712 -721 1260 -62 227 -102 443 -165
895 l-5 32 1119 0 c1057 0 1119 -1 1124 -17z"/>
<path d="M3838 6023 c-91 -55 -142 -153 -141 -273 1 -170 90 -288 223 -298 73
-5 118 9 164 54 58 56 89 127 94 215 11 181 -86 319 -232 327 -52 3 -68 -1
-108 -25z"/>
<path d="M6293 6029 c-51 -25 -98 -77 -127 -138 -17 -37 -21 -66 -21 -141 0
-110 21 -169 83 -234 48 -49 87 -66 160 -66 270 0 324 478 66 586 -48 20 -113
17 -161 -7z"/>
<path d="M4895 5395 c-87 -23 -145 -114 -129 -203 16 -88 111 -207 198 -249
31 -15 36 -21 36 -52 0 -123 -87 -221 -196 -221 -41 0 -62 7 -118 41 -57 34
-75 40 -104 36 -88 -15 -120 -121 -58 -194 36 -43 124 -91 199 -109 120 -30
253 8 353 101 l48 45 36 -33 c85 -81 174 -118 287 -118 86 -1 161 19 228 62
109 68 139 123 109 198 -31 78 -105 96 -173 42 -64 -51 -126 -74 -183 -69 -98
10 -178 99 -178 199 0 43 3 50 28 63 90 47 184 156 201 235 24 111 -34 208
-138 230 -73 16 -383 13 -446 -4z"/>
<path d="M2153 3621 c-36 -22 -63 -67 -63 -104 0 -37 41 -91 80 -104 26 -9
222 -12 746 -12 l711 -1 34 23 c67 45 70 143 6 191 -28 21 -35 21 -755 24
-707 2 -728 2 -759 -17z"/>
<path d="M2284 3066 c-29 -29 -34 -41 -34 -81 0 -40 5 -52 34 -81 l34 -34 737
2 737 3 29 33 c48 53 37 135 -23 172 -32 19 -51 20 -756 20 l-724 0 -34 -34z"/>
<path d="M2585 2546 c-50 -22 -70 -52 -70 -106 0 -54 20 -84 72 -106 47 -20
579 -20 627 0 52 22 79 63 73 114 -5 49 -28 79 -74 98 -46 20 -584 19 -628 0z"/>
</g>
</svg>
